<svg xmlns="http://www.w3.org/2000/svg" viewBox="0 0 100 100">
  <defs>
    <linearGradient id="fireGrad1" x1="0%" y1="100%" x2="100%" y2="0%">
      <stop offset="0%" style="stop-color:#CC2200;stop-opacity:1" />
      <stop offset="60%" style="stop-color:#FF6600;stop-opacity:1" />
      <stop offset="100%" style="stop-color:#FFAA00;stop-opacity:1" />
    </linearGradient>
    <linearGradient id="fireGrad2" x1="100%" y1="100%" x2="0%" y2="0%">
      <stop offset="0%" style="stop-color:#CC2200;stop-opacity:1" />
      <stop offset="100%" style="stop-color:#FF8800;stop-opacity:1" />
    </linearGradient>
  </defs>
  <!-- Left wing -->
  <path d="M50 45 C42 38, 28 32, 15 38 C22 35, 30 38, 38 46 C28 42, 16 46, 10 55 C18 50, 28 50, 38 54 C26 52, 15 60, 12 70 C20 62, 32 60, 42 64 Z"
        fill="url(#fireGrad1)" />
  <!-- Right wing -->
  <path d="M50 45 C58 38, 72 32, 85 38 C78 35, 70 38, 62 46 C72 42, 84 46, 90 55 C82 50, 72 50, 62 54 C74 52, 85 60, 88 70 C80 62, 68 60, 58 64 Z"
        fill="url(#fireGrad2)" />
  <!-- Body -->
  <ellipse cx="50" cy="54" rx="11" ry="15" fill="#CC2200" />
  <!-- Head -->
  <circle cx="50" cy="36" r="8" fill="#CC2200" />
  <!-- Beak -->
  <path d="M50 30 L54 26 L50 28 Z" fill="#FF8800" />
  <!-- Eye -->
  <circle cx="52" cy="35" r="2" fill="white" />
  <circle cx="52.5" cy="35" r="1" fill="#330000" />
  <!-- Tail feathers -->
  <path d="M44 66 C40 72, 36 82, 34 92 C38 84, 44 76, 48 72 Z" fill="url(#fireGrad1)" />
  <path d="M50 68 C50 76, 50 86, 50 95 C52 86, 52 76, 52 68 Z" fill="#FF6600" />
  <path d="M56 66 C60 72, 64 82, 66 92 C62 84, 56 76, 52 72 Z" fill="url(#fireGrad2)" />
</svg>