<svg xmlns="http://www.w3.org/2000/svg" viewBox="0 0 100 100">
  <!-- Firebird flame icon -->
  <defs>
    <linearGradient id="flameGrad" x1="0%" y1="100%" x2="100%" y2="0%">
      <stop offset="0%" style="stop-color:#CC2200;stop-opacity:1" />
      <stop offset="50%" style="stop-color:#FF6600;stop-opacity:1" />
      <stop offset="100%" style="stop-color:#FFAA00;stop-opacity:1" />
    </linearGradient>
  </defs>
  <!-- Main flame body -->
  <path d="M50 5 
           C55 15, 70 20, 68 35
           C66 45, 72 50, 70 60
           C68 70, 60 78, 50 95
           C40 78, 32 70, 30 60
           C28 50, 34 45, 32 35
           C30 20, 45 15, 50 5Z"
        fill="url(#flameGrad)" />
  <!-- Inner flame highlight -->
  <path d="M50 25
           C53 32, 60 36, 59 45
           C58 54, 55 60, 50 75
           C45 60, 42 54, 41 45
           C40 36, 47 32, 50 25Z"
        fill="#FFDD00" opacity="0.6" />
</svg>
